<svg xmlns:rdf="http://www.w3.org/1999/02/22-rdf-syntax-ns#" xmlns="http://www.w3.org/2000/svg" xml:space="preserve" viewBox="0 0 360 90.000003" height="90" width="360" version="1.1" y="0px" x="0px" xmlns:cc="http://creativecommons.org/ns#" xmlns:dc="http://purl.org/dc/elements/1.1/"><style type="text/css">
	.st0{fill:#266EB2;}
	.st1{fill:#6CBE9B;}
	.st2{opacity:0.2;fill:#020203;}
	.st3{fill:#483C90;}
</style><g transform="translate(0 -0.7)"><path style="fill:#266eb2" class="st0" d="m116.8 80.3v1.6h-5.5v-9.5h1.7v8h3.8z"/><path style="fill:#266eb2" class="st0" d="m127.5 73.8v2.3h2.9v1.6h-2.9v2.5h3.7v1.6h-5.3v-9.5h5.3v1.6h-3.7z"/><path style="fill:#266eb2" class="st0" d="m146.3 79.7h-3.8l-0.8 2.1h-1.7l3.4-9.5h1.9l3.4 9.5h-1.7l-0.7-2.1zm-0.6-1.5-1.3-3.7-1.3 3.7h2.6z"/><path style="fill:#266eb2" class="st0" d="m165.5 77.1c0 2.7-1.9 4.8-4.6 4.8h-3.3v-9.5h3.3c2.7-0.1 4.6 2 4.6 4.7zm-1.6 0c0-2.1-1.3-3.2-2.9-3.2h-1.6v6.4h1.6c1.6 0 2.9-1.2 2.9-3.2z"/><path style="fill:#266eb2" class="st0" d="m174.7 72.3h1.7v9.5h-1.7v-9.5z"/><path style="fill:#266eb2" class="st0" d="m193.8 72.3v9.5h-1.7l-4.8-6.8v6.8h-1.7v-9.5h1.7l4.8 6.8v-6.8h1.7z"/><path style="fill:#266eb2" class="st0" d="m212.6 76.5c0 3.4-2 5.4-4.8 5.4-2.7 0-4.7-2.2-4.7-4.9s2-4.9 4.9-4.9c1.6 0 2.9 0.8 3.7 1.9l-1.2 1c-0.5-0.7-1.3-1.4-2.5-1.4-1.9 0-3.2 1.5-3.2 3.3s1.2 3.3 3.1 3.3c1.6 0 2.7-0.9 3-2.3h-3.4v-1.6h5.1z"/><path style="fill:#266eb2" class="st0" d="m240.6 79.1c0 1.8-1.4 2.8-3.4 2.8h-3.2v-9.5h2.9c2 0 3.1 1.1 3.1 2.6 0 0.8-0.4 1.4-1 1.9 1 0.3 1.6 1.1 1.6 2.2zm-4.9-3.1h1.3c0.9 0 1.4-0.3 1.4-1.1 0-0.7-0.5-1.1-1.4-1.1h-1.3v2.2zm3.3 3c0-0.8-0.6-1.4-1.7-1.4h-1.6v2.7h1.5c1.2 0 1.8-0.5 1.8-1.3z"/><path style="fill:#266eb2" class="st0" d="m257.2 72.3-3.5 5.7v3.8h-1.7v-3.8l-3.5-5.7h1.9l2.5 4 2.5-4h1.8z"/><path style="fill:#266eb2" class="st0" d="m284.3 73.8h-2.3v8h-1.7v-8h-2.3v-1.6h6.2v1.6z"/><path style="fill:#266eb2" class="st0" d="m296.7 78.8h-1.7v3h-1.7v-9.5h3.6c1.7 0 3.3 1.2 3.3 3.3 0 1.4-0.8 2.5-1.9 3l2 3.3h-1.9l-1.7-3.1zm-1.7-1.5h1.9c0.9 0 1.7-0.6 1.7-1.7s-0.8-1.7-1.7-1.7h-1.9v3.4z"/><path style="fill:#266eb2" class="st0" d="m313.4 81.9c-2.4 0-3.8-1.3-3.8-4.2v-5.4h1.7v5.4c0 2 0.8 2.7 2.2 2.7s2.2-0.7 2.2-2.7v-5.4h1.7v5.4c-0.2 2.9-1.6 4.2-4 4.2z"/><path style="fill:#266eb2" class="st0" d="m328.1 78.9c0.1 1 0.8 1.5 1.6 1.5 0.9 0 1.4-0.5 1.4-1 0-0.8-0.7-1.1-1.8-1.7-1.9-1.1-2.6-1.8-2.6-3.1 0-1.4 1.2-2.4 2.8-2.4 1.7 0 2.9 1.3 2.9 2.9h-1.7c0-0.8-0.5-1.4-1.3-1.4-0.6 0-1.2 0.4-1.2 1 0 0.7 0.5 1 1.5 1.5 1.8 1 2.9 1.8 2.9 3.2 0 1.6-1.4 2.5-3 2.5-2 0-3.2-1.4-3.2-3h1.7z"/><path style="fill:#266eb2" class="st0" d="m347.3 73.8h-2.3v8h-1.7v-8h-2.3v-1.6h6.2v1.6z"/><path style="fill:#266eb2" class="st0" d="m130.2 60.2c-12.3 0-19.8-10.3-19.8-19.5 0-10 8.4-19.1 19.8-19.1 11.1 0 19.8 8.7 19.8 19.2 0 8.9-7.4 19.4-19.8 19.4zm0-32.3c-7.7 0-12.9 6.4-12.9 13s5.2 13 12.9 13c7.4 0 12.9-6.2 12.9-13.1 0-6.5-5.2-12.9-12.9-12.9z"/><path style="fill:#266eb2" class="st0" d="m173.5 60.2c-12.3 0-19.8-10.3-19.8-19.5 0-10 8.4-19.1 19.8-19.1 11.1 0 19.8 8.7 19.8 19.2 0 8.9-7.3 19.4-19.8 19.4zm0-32.3c-7.7 0-12.9 6.4-12.9 13s5.2 13 12.9 13c7.4 0 12.9-6.2 12.9-13.1 0-6.5-5.1-12.9-12.9-12.9z"/><path style="fill:#266eb2" class="st0" d="m229.2 59.3v-5.3h-0.1c-2.9 4-7.6 6.2-13 6.2-12.2 0-19.1-9.5-19.1-19.1 0-8.9 6.1-19.5 19.1-19.5 5.1 0 9.8 2.1 12.4 5.5h0.1v-16.8h6.9v49h-6.3zm-12.7-31.4c-8.5 0-12.6 7.3-12.6 13.1 0 6.6 5.2 12.9 12.5 12.9 7.2 0 12.8-5.9 12.8-12.9 0-7.8-5.6-13.1-12.7-13.1z"/><path style="fill:#266eb2" class="st0" d="m243.1 59.3v-36.7h6.4v3.3h0.1c2.9-4.1 7.6-4.2 9.3-4.3v7.1c-1.1 0-3.3 0.5-5 1.3-2.2 1.2-4 4-4 9.2v20h-6.8z"/><path style="fill:#266eb2" class="st0" d="m271.2 18.4h-6.9v-8.1h6.9v8.1zm0 40.9h-6.9v-36.7h6.9v36.7z"/><path style="fill:#266eb2" class="st0" d="m294.5 59.3h-4.8l-14.6-36.7h7.3l9.6 26.2h0.1l9.4-26.2h7.3l-14.3 36.7z"/><path style="fill:#266eb2" class="st0" d="m316.6 43.9c1.7 7.1 7.4 10 12 10 5.1 0 8.8-3 10.5-6.2h6.9c-3.5 9.5-11.9 12.4-17.6 12.4-10.4 0-18.7-8.9-18.7-19.3 0-11 8.5-19.3 18.8-19.3 9.9 0 18.6 8.1 18.7 18.8 0 1.2-0.1 3-0.2 3.5h-30.4zm23.7-5.3c-0.3-5.4-5.2-10.7-11.8-10.7s-11.5 5.4-11.8 10.7h23.6z"/><path style="fill:#6cbe9b" class="st1" d="m81.8 46.1c-1.2 5-3.7 9.7-7.6 13.6l-6.8 6.8-0.1 0.1-0.1 0.1c-5.5 5.4-13.6 6.8-20.4 4.2-2.4-0.9-4.7-2.3-6.6-4.3l-13.9-13.9c-1.9-1.9-3.3-4.2-4.3-6.6-2.6 6.8-1.2 14.9 4.2 20.4l0.2 0.2 6.8 6.8c3.9 3.9 8.6 6.4 13.6 7.6 9.5 2.3 20-0.2 27.3-7.6l0.1-0.1c7.4-7.3 9.9-17.8 7.6-27.3z"/><path style="fill:#6cbe9b" class="st1" d="m67.4 25.7-7-7c-3.9-3.9-8.6-6.4-13.6-7.6-9.5-2.3-20 0.2-27.3 7.6l-0.1 0.1c-7.4 7.4-9.9 17.8-7.6 27.3 1.2-5 3.7-9.7 7.6-13.6l6.8-6.8 0.1-0.1 0.1-0.1c5.5-5.4 13.6-6.8 20.4-4.2 2.4 0.9 4.7 2.3 6.6 4.3l13.9 13.9c1.9 1.9 3.3 4.2 4.3 6.6 2.6-6.8 1.2-14.9-4.2-20.4z"/><path style="fill:#266eb2" class="st0" d="m74.2 18.8c-7.4-7.4-17.9-10-27.4-7.7 5 1.2 9.7 3.7 13.6 7.6l6.8 6.8 0.1 0.1 0.1 0.1c5.4 5.5 6.8 13.6 4.2 20.4-0.9 2.4-2.3 4.7-4.3 6.6l-13.9 13.9c-1.9 1.9-4.2 3.3-6.6 4.3 6.8 2.6 14.9 1.2 20.4-4.2l7-7c3.9-3.9 6.4-8.6 7.6-13.6 2.3-9.5-0.2-19.9-7.6-27.3z"/><path style="fill:#266eb2" class="st0" d="m26.4 66.7v0l-0.2-0.2c-5.4-5.5-6.8-13.6-4.2-20.4 0.9-2.4 2.3-4.7 4.3-6.6l13.9-13.9c1.9-1.9 4.2-3.3 6.6-4.3-6.8-2.6-14.9-1.2-20.4 4.2l-7 7c-3.9 3.9-6.4 8.6-7.6 13.6-2.3 9.5 0.2 20 7.6 27.3l0.1 0.1c7.4 7.4 17.8 9.9 27.3 7.6-5-1.2-9.7-3.7-13.6-7.6l-6.8-6.8z"/><path style="opacity:.2;fill:#020203" class="st2" d="m25 51.1c-1.2-1.5-2.2-3.3-2.9-5-2.6 6.8-1.2 14.9 4.2 20.4-4.1-4.2-4.6-10.7-1.3-15.4z"/><path style="opacity:.2;fill:#020203" class="st2" d="m68.7 41.1c1.2 1.5 2.2 3.3 2.9 5 2.6-6.8 1.2-14.9-4.2-20.4 4.1 4.2 4.5 10.7 1.3 15.4z"/><path style="opacity:.2;fill:#020203" class="st2" d="m51.9 68c-1.5 1.2-3.3 2.2-5 2.9 6.8 2.6 14.9 1.2 20.4-4.2-4.3 4.1-10.8 4.5-15.4 1.3z"/><path style="opacity:.2;fill:#020203" class="st2" d="m41.8 24.3c1.5-1.2 3.3-2.2 5-2.9-6.8-2.6-14.9-1.2-20.4 4.2 4.2-4.1 10.7-4.6 15.4-1.3z"/></g></svg>
